<?xml version="1.0" standalone="no"?>
<!DOCTYPE svg PUBLIC "-//W3C//DTD SVG 20010904//EN"
 "http://www.w3.org/TR/2001/REC-SVG-20010904/DTD/svg10.dtd">
<svg version="1.0" xmlns="http://www.w3.org/2000/svg"
 width="68.000000pt" height="39.000000pt" viewBox="0 0 68.000000 39.000000"
 preserveAspectRatio="xMidYMid meet">
<metadata>
Created by potrace 1.16, written by Peter Selinger 2001-2019
</metadata>
<g transform="translate(0.000000,39.000000) scale(0.100000,-0.100000)"
fill="#000000" stroke="none">
<path d="M0 195 l0 -195 115 0 115 0 0 43 c0 23 3 52 6 64 6 21 3 23 -29 23
-29 0 -36 -4 -41 -27 -5 -17 -3 -29 6 -34 9 -6 7 -14 -12 -33 -24 -27 -74 -34
-128 -20 l-23 7 22 23 c12 13 30 24 40 24 22 0 28 16 35 101 6 59 5 69 -9 69
-20 0 -37 -30 -37 -63 0 -25 -32 -62 -43 -50 -12 12 -7 83 8 112 18 35 70 61
124 61 l41 0 -6 -56 -7 -55 34 3 c28 2 35 8 37 28 7 57 35 121 63 145 l31 25
-171 0 -171 0 0 -195z"/>
<path d="M443 383 c4 -3 -2 -17 -14 -29 -17 -19 -26 -21 -41 -13 -32 17 -55
-13 -67 -89 -22 -142 -24 -178 -10 -165 20 20 29 16 29 -12 0 -21 -9 -30 -52
-50 l-53 -25 62 0 62 0 6 32 c3 18 9 65 13 105 7 65 6 72 -10 76 -25 7 -23 39
5 65 25 24 73 29 80 10 4 -10 7 -10 18 0 16 14 65 16 74 2 4 -7 12 -7 25 0 27
15 67 12 73 -4 3 -8 4 -30 2 -48 -14 -111 -15 -162 -3 -150 19 19 28 14 28
-13 0 -21 -9 -30 -52 -50 l-53 -25 58 0 57 0 0 195 0 195 -122 0 c-67 0 -118
-3 -115 -7z"/>
<path d="M461 203 c-10 -21 -22 -70 -26 -109 -6 -64 -9 -72 -33 -81 -26 -10
-25 -11 16 -12 34 -1 42 2 42 17 1 9 7 63 14 120 7 56 11 102 9 102 -1 0 -11
-17 -22 -37z"/>
<path d="M557 203 c-8 -15 -18 -55 -22 -88 -9 -85 -13 -92 -43 -104 -25 -9
-23 -9 19 -10 l45 -1 11 113 c6 61 10 114 8 115 -2 2 -10 -9 -18 -25z"/>
</g>
</svg>
